# xmcd
#
# Track frame offsets:
#	182
#	19657
#	41747
#	53960
#	73542
#	94555
#	116072
#	139455
#	160970
#	183840
#	202562
#	222002
#	239975
#	259497
#	278277
#
# Disc length: 3976 seconds
#
# Revision: 2
# Processed by: cddbd v1.5.2PL0 Copyright (c) Steve Scherf et al.
# Submitted via: EasyCDDAExtractor 15.2.5.1
#
DISCID=d80f860f
DTITLE=十大勁歌金曲金獎 - 九二'頒獎典禮
DYEAR=1992
DGENRE=Alternative
TTITLE0=容易受傷的女人
TTITLE1=水手
TTITLE2=舊歡如萝
TTITLE3=我的親愛
TTITLE4=逗我開心吧
TTITLE5=红日
TTITLE6=雨季不再來
TTITLE7=分手總要在雨天
TTITLE8=冬季到臺北來看雨
TTITLE9=瀟灑走一回
TTITLE10=雨中的戀人們
TTITLE11=火熱動感 LA LA LA
TTITLE12=红塵
TTITLE13=红茶館
TTITLE14=竉愛
EXTD=
EXTT0=
EXTT1=
EXTT2=
EXTT3=
EXTT4=
EXTT5=
EXTT6=
EXTT7=
EXTT8=
EXTT9=
EXTT10=
EXTT11=
EXTT12=
EXTT13=
EXTT14=
PLAYORDER=
